<svg width="1441" height="401" viewBox="0 0 1441 401" fill="none" xmlns="http://www.w3.org/2000/svg">
<path fill-rule="evenodd" clip-rule="evenodd" d="M606.62 117.224C606.62 181.966 554.137 234.449 489.396 234.449C446.434 234.449 408.869 211.337 388.458 176.868L399.32 199.656L477.781 364.261C481.893 372.887 478.252 383.29 469.303 386.64C425.479 403.044 377.077 403.591 332.627 387.838C282.718 370.15 241.88 333.36 219.096 285.562C206.4 258.926 199.89 230.088 199.674 201.137C199.673 254.086 178.638 304.865 141.198 342.305C103.756 379.747 52.9742 400.781 0.0234595 400.781L0.0234375 201.13V1.47918C52.9742 1.47918 103.756 22.5138 141.198 59.9556C178.289 97.047 199.279 147.23 199.669 199.644C199.67 177.136 203.476 154.582 211.138 132.963C226.891 88.5126 257.796 51.2574 298.136 27.5439C306.374 22.7013 316.747 26.4244 320.859 35.0505L379.436 157.941C374.738 145.258 372.172 131.541 372.172 117.224C372.172 52.4831 424.655 0 489.396 0C554.137 0 606.62 52.4831 606.62 117.224ZM1005.92 200.333C1005.92 90.0691 916.532 0.682312 806.268 0.682312C696.004 0.682312 606.617 90.0691 606.617 200.333C606.617 310.598 696.004 399.984 806.268 399.984C916.532 399.984 1005.92 310.598 1005.92 200.333ZM1188.3 0.744611C1197.82 -0.0821942 1205.58 7.74232 1205.58 17.2982V141.318V199.647V381.995C1205.58 391.551 1197.82 399.376 1188.3 398.549C1141.68 394.5 1097.75 374.168 1064.4 340.821C1026.96 303.379 1005.93 252.597 1005.93 199.647C1005.93 146.696 1026.96 95.914 1064.4 58.4721C1097.75 25.1256 1141.68 4.79345 1188.3 0.744611ZM1205.58 141.318C1205.58 76.5764 1258.06 24.0933 1322.8 24.0933C1387.54 24.0933 1440.03 76.5764 1440.03 141.318C1440.03 206.059 1387.54 258.542 1322.8 258.542C1258.06 258.542 1205.58 206.059 1205.58 141.318Z" fill="#232323"/>
</svg>
