<svg id="Layer_1" data-name="Layer 1" xmlns="http://www.w3.org/2000/svg" viewBox="0 0 1320 382.42"><defs><style>.cls-1{fill:#371587;}.cls-2{fill:#ffc50b;}.cls-3{fill:#fff;}.cls-4{fill:#ff1eac;}</style></defs><title>Full Logo Colored</title><path d="M519,97.15q-4.25,7.88-17.38,33.21-7.19,14-19.77,37.31,1.08,1.71,12.51,14.29,6.72,7.18,19.08,18.31-5.17,2.25-16.92,7.26-6.56,2.94-18.46,8.58-2.94-3.56-12.05-16.61-5.1-7.73-9.81-16.46h-.31l-.77,26.58H412.35l-2.08-61.72q-.86-20.25-3.63-56.93H460.4l-3,52.06h.54q3.24-9.12,10.43-30,2.92-9.11,7.57-25l21.86,4.79Q508.44,95.07,519,97.15Z"/><path d="M575.73,91l-3,63.11q-.86,20.38-2,55.54H527.37L522.12,91Z"/><path d="M687.58,151.22q0,27.89-17.3,43.88-17.85,16.6-50.29,16.6-20.85,0-32.21-2.08l-2.09-57.4q-1-22.08-3.63-60.94a246.88,246.88,0,0,1,35-2.4q32.52,0,50.9,15.14Q687.58,120.25,687.58,151.22Zm-31.67,9.5q0-11.35-7.34-16.76-6.11-4.49-15.6-4.1l-1.08,48.44q9.89-.62,16.14-6.41Q655.92,174.71,655.91,160.72Z"/><path d="M798.67,139.55a42.8,42.8,0,0,0-8.66-1.31,10.27,10.27,0,0,0-6.64,2.47,9.67,9.67,0,0,0-3.63,7.8q0,3.72,6.64,14.3T793,182.27a26.44,26.44,0,0,1-9.81,21.17q-9.36,8-23.1,7.95-12.68,0-18.69-1.77-.7-3.56-2.4-11.59-1.08-4.32-3-11.51,8.49,2.08,11.43,2.09,11.5,0,11.51-8.73a16.32,16.32,0,0,0-4.63-11.36q-7.58-6.65-15.14-13.36-14.69-13-14.68-30.82,0-18.61,13.9-28.2,12.14-8.34,32.29-8.34a114.11,114.11,0,0,1,25.65,3.32Z"/><path d="M904.8,137.78q0,21.93-14,35.11t-37.19,13.17l-.93,23.56H810.1l-2.24-57.55q-1-22.24-3.17-61.1,12-2.4,35.3-2.4,28.35,0,45.42,11.36Q904.81,112.83,904.8,137.78Zm-32,13q0-12-14.3-12.05a25.85,25.85,0,0,0-3.47.24l-.77,27Q872.75,165.36,872.75,150.75Z"/><path d="M1013.49,147.74q0,27.27-14.06,46.12-14.76,19.69-37.77,19.7-23.71,0-38.39-19.86-13.83-18.69-13.83-46,0-29.11,15.06-45.73,14.22-15.6,37.16-15.6,22.55,0,36.77,15.68Q1013.49,118.77,1013.49,147.74Zm-37.16,13.6q0-21.48-14.52-21.48-14.13,0-14.13,21.63a36,36,0,0,0,3.7,16.15q4.17,8.42,10.28,8.42,5.94,0,10.5-8.58A33.81,33.81,0,0,0,976.33,161.34Z"/><path d="M1123.1,135.38a41.78,41.78,0,0,1-7.95,25.18,39.54,39.54,0,0,1-17.61,13.76q2.24,3.47,11,14.6A181.53,181.53,0,0,0,1122,202.35q-3.63,1.32-16,6.65-8.65,3.94-16.3,7.72-2.24-2.78-10-14.37-3.55-5.86-10.43-19.77h-.15l-.78,27h-43.49q-.84-16.85-2.39-55.54-.71-22.79-3.17-63.11a370.53,370.53,0,0,1,38.78-2.24Q1123.11,88.73,1123.1,135.38ZM1088,152.07q0-7.33-6.18-10.51a22.88,22.88,0,0,0-11.43-2L1070,166a22.66,22.66,0,0,0,11.43-2.86Q1088,159.4,1088,152.07Z"/><path d="M1221.9,91l-2.24,48.58c-2-.3-5.22-.69-9.65-1.15q-4.1-.24-13.29-.47-.46,4.56-1.62,22-.86,16.92-2.78,49.67h-37.39q-.62-15.6-2.32-49.06-.77-11.58-1.62-22.63l-12.2.47-11,1.15L1125.81,91Z"/><path d="M1300,139.55a42.73,42.73,0,0,0-8.65-1.31,10.25,10.25,0,0,0-6.64,2.47,9.65,9.65,0,0,0-3.64,7.8q0,3.72,6.65,14.3t6.64,19.46a26.44,26.44,0,0,1-9.81,21.17q-9.35,8-23.1,7.95-12.66,0-18.69-1.77-.69-3.56-2.39-11.59-1.09-4.32-3-11.51,8.51,2.08,11.43,2.09,11.52,0,11.51-8.73a16.32,16.32,0,0,0-4.63-11.36q-7.58-6.65-15.14-13.36-14.68-13-14.68-30.82,0-18.61,13.91-28.2,12.12-8.34,32.29-8.34a114,114,0,0,1,25.64,3.32Z"/><path d="M531.47,254.87q-1.08,16.22-3.17,59.17-1.08,26.41-1.62,59.48h-28l-.77-36.38-27.27,39.24-29.43-38.94-.77,36.08H412.66q-.54-17.7-2.09-59.79-1.08-24.25-3.93-58.86H450.9q2.31,5.64,8,18.23,4.33,9,11.82,21.16,3.33-5.25,12.21-21.7,3.17-6.1,8.11-17.69Z"/><path d="M619,254.87l-3.32,48.89q-2.86-.47-12.36-1.62-6.49-.61-14.22-.77l-1.16,14.75q8.51.24,27.74-.38-.85,2.85-2.71,10.66-1.08,4.71-1.93,10.89a109.65,109.65,0,0,0-11.2-1.39q-4.17-.24-12.36-.16L586.7,353q5.79-.08,21.32-1a72.5,72.5,0,0,0,9.65-1.86q-.61,2.4-2.85,11.51-1.08,4.71-2.63,11.9H543.05L540.81,313q-.62-20.77-3-58.08Z"/><path d="M731.15,315.12q0,27.88-17.3,43.88Q696,375.61,663.56,375.6q-20.85,0-32.21-2.08l-2.09-57.4q-1-22.08-3.63-60.94a246.84,246.84,0,0,1,35-2.4q32.52,0,50.91,15.14Q731.15,284.15,731.15,315.12Zm-31.67,9.5q0-11.36-7.34-16.76-6.1-4.49-15.6-4.1l-1.08,48.44q9.88-.61,16.14-6.41Q699.48,338.61,699.48,324.62Z"/><path d="M790.63,254.87l-3,63.11q-.86,20.38-2,55.54H742.27L737,254.87Z"/><path d="M891.44,373.52H849.18l-2.85-10.28q-1.79.7-8.89,4.71a88.6,88.6,0,0,0-10.12,7.81l-4.4-9.35q-1.32-2.78-3.78-7.8L815,373.52h-22.4q5-19.08,15.3-63,6.33-29.35,10.58-55.69h46.43Q867,267,876.68,311.33,882,334.51,891.44,373.52ZM842.7,348.18q-1.32-4.1-4.64-13.29-2-5.1-6.1-14.06-1.79,4.49-5.56,14.68-2.08,5.88-4.95,16,2.32,0,10.51-.93A75,75,0,0,0,842.7,348.18Z"/><path class="cls-1" d="M186.05,105.85l-7.15,2.07-78-91.66c-3.36.9-6.68-.58-7.47-3.31s1.29-5.86,4.69-6.84,6.82.46,7.63,3.26a4.63,4.63,0,0,1-.65,3.91l75.59,74.27Z"/><path class="cls-1" d="M175.47,105.85l7.15,2.07,78-91.66c3.35.9,6.68-.58,7.47-3.31s-1.29-5.86-4.69-6.84-6.82.46-7.64,3.26a4.67,4.67,0,0,0,.66,3.91L180.79,87.55Z"/><path class="cls-2" d="M358.08,172.75,340.19,309.81a76.7,76.7,0,0,1-76,66.82H114.58a76.7,76.7,0,0,1-76-66.82L20.65,172.75a76.67,76.67,0,0,1,76-86.59H282A76.67,76.67,0,0,1,358.08,172.75Z"/><path class="cls-3" d="M256.8,367.29H121.94a74.26,74.26,0,0,1-73.46-64.57L32.34,179.17A74.08,74.08,0,0,1,105.8,95.5H272.86a74.09,74.09,0,0,1,73.54,83.67h0L330.26,302.73A74.25,74.25,0,0,1,256.8,367.29Zm-151-261.87a64.16,64.16,0,0,0-63.61,72.47L58.32,301.44a64.31,64.31,0,0,0,63.62,55.93H256.8a64.31,64.31,0,0,0,63.62-55.92l16.13-123.56a64.17,64.17,0,0,0-63.69-72.47Z"/><path class="cls-4" d="M272.82,230.55c9.22-3.67,18.69,5,16.05,14.61a103.26,103.26,0,0,1-199,0c-2.64-9.56,6.82-18.28,16-14.61a227.74,227.74,0,0,0,166.9,0Z"/><circle class="cls-1" cx="123.04" cy="184.43" r="17.96"/><path class="cls-1" d="M270.46,197a3.21,3.21,0,0,1-3-2.2c-1.25-3.82-5.61-10.28-14-10.28-7.86,0-13,6.69-13.92,10.1a3.2,3.2,0,0,1-6.18-1.63c1.58-6,9.06-14.86,20.1-14.86a21.21,21.21,0,0,1,20.06,14.67,3.2,3.2,0,0,1-2,4A3.17,3.17,0,0,1,270.46,197Z"/></svg>